<svg width="80" height="80" viewBox="0 0 80 80" fill="none" xmlns="http://www.w3.org/2000/svg">
<path d="M40 7.5C22.1375 7.5 7.5 22.1375 7.5 40C7.5 57.8625 22.1375 72.5 40 72.5C57.8625 72.5 72.5 57.8625 72.5 40C72.5 22.1375 57.8625 7.5 40 7.5ZM40 12.5C45.8875 12.5 51.375 14.395 55.86 17.5775C51.0065 16.3929 45.9982 15.9712 41.015 16.3275C37.755 16.5625 34.94 17.0525 32.8125 17.5775C32.13 17.745 31.6875 17.89 31.1725 18.0475C30.9335 16.7582 30.803 15.4511 30.7825 14.14C33.7373 13.0655 36.8559 12.5106 40 12.5ZM25.9375 16.485C26.1169 18.0908 26.4042 19.6828 26.7975 21.25C26.7875 21.75 26.9225 22.2375 27.1875 22.6575C28.1317 26.0183 29.4967 29.2463 31.25 32.265C31.3 32.3425 31.35 32.4225 31.4075 32.5C33.0689 35.3341 35.0329 37.9795 37.265 40.39C36.63 42.55 35.85 44.54 35 46.3275C33.555 45.01 31.7275 43.0675 29.765 40.235C26.445 35.45 23.28 28.555 23.125 19.2975C23.1219 19.004 23.0686 18.7131 22.9675 18.4375C23.8875 17.7125 24.9325 17.0875 25.9375 16.485ZM43.595 21.1725C49.0625 21.055 55.655 21.905 62.265 25.0775C62.5675 25.2825 62.92 25.41 63.2825 25.4675C64.0825 26.7375 64.805 28.0475 65.39 29.4525C57.6075 25.9675 50.39 25.2925 44.6875 25.7025C41.2199 25.9291 37.801 26.6393 34.53 27.8125C33.7389 26.2212 33.0606 24.5763 32.5 22.89C32.9875 22.745 33.4375 22.5775 34.0625 22.4225C35.9375 21.9525 38.3975 21.455 41.3275 21.25C42.06 21.2 42.8125 21.1925 43.595 21.1725ZM18.36 23.125C19.21 31.65 22.335 38.3 25.625 43.0475C27.5874 45.8999 29.8968 48.4974 32.5 50.78C31.4438 52.3526 30.2687 53.842 28.985 55.235C26.7801 53.0266 24.8158 50.5905 23.125 47.9675C19.7375 42.725 16.65 35.4875 16.9525 26.7975C16.9989 26.342 16.9184 25.8826 16.72 25.47C17.2275 24.67 17.7725 23.8675 18.36 23.125ZM47.3425 30.625C52.7825 30.5575 59.4525 31.63 66.6425 35.625C66.7874 35.7235 66.9445 35.8025 67.11 35.86C67.295 37.09 67.48 38.34 67.5 39.61C64.2275 38.145 58.975 36.385 52.11 36.25C51.6426 36.0474 51.1245 35.9925 50.625 36.0925C50.4637 36.1301 50.3064 36.1829 50.155 36.25H50C47.0778 36.3565 44.1731 36.7492 41.3275 37.4225C39.7772 35.799 38.3663 34.0478 37.11 32.1875C40.4257 31.1637 43.8749 30.6371 47.345 30.625H47.3425ZM12.815 36.015C14.045 41.7875 16.41 46.7475 18.91 50.625C20.788 53.5693 22.9892 56.2946 25.4725 58.75C24.25 59.785 23.225 60.525 22.4225 61.095C16.36 56.045 12.5 48.475 12.5 40C12.5 38.65 12.625 37.315 12.8125 36.015H12.815ZM53.3625 41.3275C55.325 41.435 57.1325 41.62 58.7525 41.9525C58.695 42.46 58.635 42.9275 58.5175 43.595C58.0749 46.0249 57.395 48.4054 56.4875 50.7025C54.3375 56.1225 50.4325 62.3925 43.1275 66.72C42.8819 66.8874 42.6699 67.0994 42.5025 67.345C41.6713 67.4362 40.8362 67.488 40 67.5C38.8075 67.5 37.6375 67.4125 36.485 67.265C42.3536 63.1365 47.0619 57.5682 50.1575 51.095C51.5925 48.095 52.45 45.37 52.97 43.2025C53.145 42.46 53.2525 41.915 53.36 41.3275H53.3625ZM47.97 41.4075C48.0775 41.3975 48.185 41.415 48.2825 41.4075C48.235 41.64 48.185 41.7775 48.1275 42.0325C47.5355 44.4049 46.6976 46.709 45.6275 48.9075C43.1075 54.17 38.675 60.37 30.6275 65.0775C30.368 65.1925 30.1303 65.3515 29.925 65.5475C28.8 65.0975 27.765 64.5725 26.7225 63.985C27.5325 63.36 28.5175 62.56 29.5325 61.64C29.8674 61.6507 30.201 61.594 30.5134 61.4731C30.8259 61.3523 31.1109 61.1698 31.3513 60.9365C31.5918 60.7033 31.7829 60.424 31.9133 60.1154C32.0436 59.8067 32.1105 59.475 32.11 59.14C34.1915 56.924 36.0256 54.4879 37.58 51.875C37.7926 51.6227 37.9525 51.3302 38.05 51.015C39.465 48.515 40.715 45.655 41.7225 42.4225C43.7758 41.9192 45.8656 41.5789 47.9725 41.405L47.97 41.4075ZM63.595 43.3575C65.08 43.8975 66.2225 44.425 67.0325 44.845C66.3735 48.5185 64.9743 52.0196 62.9199 55.1354C60.8656 58.2513 58.1991 60.9168 55.0825 62.97C57.6403 59.843 59.6958 56.3368 61.175 52.5775C62.395 49.5025 63.05 46.7 63.44 44.5325C63.5275 44.0525 63.54 43.7575 63.5975 43.3575H63.595Z" fill="#8FD192"/>
</svg>
