<svg width="37" height="37" viewBox="0 0 37 37" fill="none" xmlns="http://www.w3.org/2000/svg">
<path d="M10.9215 29.6289C8.91926 29.6289 7.29923 31.2671 7.29923 33.2694C7.29923 35.2717 8.91926 36.9099 10.9215 36.9099C12.9238 36.9099 14.562 35.2717 14.562 33.2694C14.562 31.2671 12.9238 29.6289 10.9215 29.6289ZM0 0.504761V4.14527H3.64051L10.1934 17.961L7.73609 22.4206C7.44485 22.9303 7.28102 23.531 7.28102 24.1681C7.28102 26.1704 8.91926 27.8086 10.9215 27.8086H32.7646V24.1681H11.686C11.4312 24.1681 11.231 23.9679 11.231 23.713L11.2856 23.4946L12.9238 20.5276H26.4847C27.8499 20.5276 29.0513 19.7813 29.6702 18.6527L36.1867 6.83925C36.3323 6.58442 36.4051 6.27497 36.4051 5.96553C36.4051 4.96439 35.586 4.14527 34.5849 4.14527H7.66328L5.95224 0.504761H0ZM29.1241 29.6289C27.1218 29.6289 25.5018 31.2671 25.5018 33.2694C25.5018 35.2717 27.1218 36.9099 29.1241 36.9099C31.1264 36.9099 32.7646 35.2717 32.7646 33.2694C32.7646 31.2671 31.1264 29.6289 29.1241 29.6289Z" fill="black"/>
</svg>
