<svg width="34" height="36" viewBox="0 0 34 36" fill="none" xmlns="http://www.w3.org/2000/svg">
<path d="M32.0492 28.9539C31.2352 27.0255 30.0538 25.274 28.5709 23.7968C27.0925 22.3153 25.3413 21.1341 23.4138 20.3184C23.3965 20.3098 23.3793 20.3055 23.362 20.2968C26.0506 18.3548 27.7984 15.1915 27.7984 11.6225C27.7984 5.7102 23.0081 0.919922 17.0958 0.919922C11.1835 0.919922 6.39318 5.7102 6.39318 11.6225C6.39318 15.1915 8.14099 18.3548 10.8296 20.3011C10.8123 20.3098 10.7951 20.3141 10.7778 20.3227C8.84442 21.1384 7.10956 22.3079 5.62069 23.8011C4.1392 25.2794 2.958 27.0307 2.14234 28.9582C1.34104 30.8452 0.908874 32.8683 0.869249 34.918C0.868097 34.964 0.876176 35.0099 0.893009 35.0528C0.909843 35.0956 0.935091 35.1347 0.967266 35.1677C0.99944 35.2007 1.03789 35.2269 1.08035 35.2448C1.12281 35.2627 1.16842 35.2719 1.21449 35.2719H3.80384C3.99372 35.2719 4.14477 35.1208 4.14908 34.9352C4.23539 31.6036 5.57322 28.4835 7.93815 26.1185C10.3851 23.6716 13.6347 22.3251 17.0958 22.3251C20.5569 22.3251 23.8065 23.6716 26.2534 26.1185C28.6184 28.4835 29.9562 31.6036 30.0425 34.9352C30.0468 35.1251 30.1979 35.2719 30.3878 35.2719H32.9771C33.0232 35.2719 33.0688 35.2627 33.1112 35.2448C33.1537 35.2269 33.1922 35.2007 33.2243 35.1677C33.2565 35.1347 33.2817 35.0956 33.2986 35.0528C33.3154 35.0099 33.3235 34.964 33.3223 34.918C33.2792 32.8551 32.8519 30.8484 32.0492 28.9539ZM17.0958 19.0453C15.1149 19.0453 13.2506 18.2728 11.8481 16.8703C10.4455 15.4677 9.67301 13.6034 9.67301 11.6225C9.67301 9.64169 10.4455 7.77736 11.8481 6.3748C13.2506 4.97224 15.1149 4.19976 17.0958 4.19976C19.0766 4.19976 20.941 4.97224 22.3435 6.3748C23.7461 7.77736 24.5186 9.64169 24.5186 11.6225C24.5186 13.6034 23.7461 15.4677 22.3435 16.8703C20.941 18.2728 19.0766 19.0453 17.0958 19.0453Z" fill="black"/>
</svg>
