<svg width="928" height="828" viewBox="0 0 928 828" fill="none" xmlns="http://www.w3.org/2000/svg">
<path fill-rule="evenodd" clip-rule="evenodd" d="M427.808 58.4075C483.018 72.7307 532.051 98.3361 587.857 110.125C673.995 128.323 776.693 90.8709 844.912 146.523C911.822 201.107 928.301 300.99 927.668 387.338C927.037 473.433 887.884 553.655 841.395 626.123C796.315 696.395 740.481 762.663 664.581 797.441C591.371 830.986 505.531 836.702 427.808 815.633C357.221 796.498 320.725 718.762 255.119 686.443C182.86 650.846 76.1796 682.638 27.5228 618.443C-19.8166 555.985 4.03751 461.821 28.4146 387.338C49.7243 322.227 124.708 291.26 154.755 229.691C188.143 161.275 146.876 52.906 211.367 12.4518C274.93 -27.4207 355.178 39.5651 427.808 58.4075Z" fill="#D2EDD3"/>
</svg>
