<svg width="90" height="92" viewBox="0 0 90 92" fill="none" xmlns="http://www.w3.org/2000/svg">
<g clip-path="url(#clip0_193_1210)">
<path d="M74.5217 45.8516L74.8085 46.2611C76.3957 48.5279 77.0571 51.2483 76.6619 53.944C76.3196 56.5272 75.1472 58.8861 73.1125 60.9763C72.888 61.2659 72.6571 61.5065 72.398 61.688L60.2878 70.1676C56.5644 72.7747 51.7664 73.4856 47.448 72.0716L30.7644 66.6091L30.7636 66.6089C30.0535 66.375 29.4437 65.917 29.0264 65.3211C28.2971 64.2795 28.2657 63.2327 28.5471 62.3725C28.8202 61.5377 29.3848 60.8816 29.8657 60.5448C30.4379 60.1442 31.5562 59.6568 32.8961 60.0999C32.8963 60.1 32.8964 60.1 32.8966 60.1001L38.897 62.0653C39.4055 62.2306 39.9479 62.1425 40.3649 61.8505C40.882 61.4884 41.0508 61.0367 41.0651 60.6144C41.0802 60.166 40.9184 59.7511 40.7719 59.5419L21.5971 32.1575C20.4231 30.4808 20.8187 28.1437 22.4149 27.0261C24.1003 25.8459 26.4347 26.2563 27.6158 27.9431L37.7187 42.3716C38.1399 42.973 39.1449 43.3962 40.0292 42.7773L74.5217 45.8516ZM74.5217 45.8516L74.5206 45.8523M74.5217 45.8516L74.5206 45.8523M74.5206 45.8523L66.3114 34.1284C65.0815 32.372 62.6525 31.944 60.8943 33.1752L60.8942 33.1753L59.3414 34.2632C59.3413 34.2632 59.3413 34.2633 59.3413 34.2633C58.788 34.6507 58.3611 34.7151 57.9871 34.6663C57.5957 34.6152 57.2272 34.44 56.7599 34.2178C56.7334 34.2052 56.7066 34.1925 56.6794 34.1796C56.2019 33.953 55.6294 33.6912 54.9626 33.6529C54.2738 33.6133 53.5404 33.8124 52.7203 34.3866L51.2057 35.4471C50.544 35.9105 50.2712 36.372 50.058 36.7669C50.0478 36.7857 50.0379 36.8041 50.0281 36.8222C49.8442 37.1638 49.7236 37.3876 49.4054 37.6104C48.7771 38.0504 48.3042 37.9185 47.5397 37.7052C47.4908 37.6916 47.4407 37.6776 47.3893 37.6634C46.9754 37.5492 46.483 37.43 45.9229 37.4694C45.3523 37.5095 44.749 37.7104 44.0899 38.172L42.5753 39.2325C41.4938 39.9898 41.1485 40.7362 40.9037 41.3907C40.8841 41.443 40.8654 41.4937 40.8473 41.5428C40.6494 42.0795 40.5187 42.4339 40.0292 42.7773L74.5206 45.8523ZM57.5633 28.6115L57.7854 28.6762L57.9785 28.5489C62.1881 25.7731 67.8804 26.8324 70.7931 30.9921L79.2882 43.1244C81.6901 46.5546 82.6706 50.6689 82.0765 54.6898L82.0765 54.6898L82.0755 54.6972C81.5849 58.4016 79.923 61.7985 77.2612 64.5344L77.2404 64.5559L77.2222 64.5796C76.8012 65.131 76.1941 65.706 75.5347 66.1677L63.4245 74.6473C58.3097 78.2288 51.6962 79.2155 45.7424 77.2605L45.742 77.2604L29.0614 71.7974L29.0605 71.7972C27.2098 71.1948 25.6447 70.0307 24.5484 68.4649C22.153 65.0439 22.1089 59.2919 26.7351 56.0525C26.7625 56.0333 26.7908 56.0134 26.8199 55.993C27.4174 55.5726 28.3574 54.9113 29.8073 54.6791L30.5958 54.5528L30.1378 53.8986L17.113 35.2973C14.2025 31.1407 15.2146 25.3916 19.3708 22.4814C23.5273 19.571 29.2791 20.5843 32.1894 24.7407L38.9917 34.4553L39.2784 34.8649L39.688 34.5781L40.9509 33.6938C42.6296 32.5184 44.6054 31.9319 46.6079 32.0123L46.8211 32.0209L46.9748 31.8729C47.3157 31.5446 47.6815 31.2431 48.07 30.9711L49.5846 29.9106C51.8999 28.2894 54.8659 27.8253 57.5633 28.6115Z" fill="#787370" stroke="white"/>
</g>
<defs>
<clipPath id="clip0_193_1210">
<rect width="60.375" height="69" fill="white" transform="translate(0.543457 35.0541) rotate(-35)"/>
</clipPath>
</defs>
</svg>
