<svg width="505" height="418" viewBox="0 0 505 418" fill="none" xmlns="http://www.w3.org/2000/svg">
<path fill-rule="evenodd" clip-rule="evenodd" d="M267.982 3.06223C323.326 -9.24629 388.018 16.5026 420.135 63.2249C450.027 106.71 419.172 162.871 413.928 215.378C409.576 258.943 419.819 305.682 392.5 339.895C362.775 377.122 315.298 403.687 267.982 398.159C223.365 392.946 204.131 342.474 169.517 313.843C127.547 279.129 46.5351 269.841 47.003 215.378C47.4717 160.819 131.85 156.391 171.194 118.589C208.854 82.4059 217.002 14.4001 267.982 3.06223Z" fill="#D2EDD3"/>
<circle cx="206.499" cy="234.913" r="181.5" stroke="#60547C" stroke-width="2" stroke-dasharray="10 10"/>
<circle cx="367.498" cy="165.912" r="136.5" stroke="#D2EDD3" stroke-width="2" stroke-dasharray="10 10"/>
<circle cx="400.998" cy="329.413" r="74" stroke="#D2EDD3" stroke-width="2" stroke-dasharray="10 10"/>
</svg>
