<svg width="90" height="60" viewBox="0 0 90 60" fill="none" xmlns="http://www.w3.org/2000/svg">
<path d="M44.4211 58.9999C46.6593 58.9999 48.4737 57.7633 48.4737 56.238C48.4737 54.7126 46.6593 53.4761 44.4211 53.4761C42.1828 53.4761 40.3684 54.7126 40.3684 56.238C40.3684 57.7633 42.1828 58.9999 44.4211 58.9999Z" fill="black" stroke="black" stroke-width="0.25" stroke-miterlimit="10"/>
<path d="M68.1631 5.05117C68.2693 6.11265 69.9322 6.20821 72.6579 7.78693C74.4973 8.85258 75.687 9.93691 77.7373 11.8044C79.4018 13.3208 80.607 14.4197 81.8927 16.0981C84.9904 20.1446 85.1738 23.1546 86.4184 23.0944C87.7178 23.032 88.7155 19.6876 88.9418 17.4151C89.2418 14.4114 88.3144 12.0682 87.7109 10.5933C86.0858 6.61951 83.4715 4.4633 82.5081 3.73626C81.3338 2.85134 78.7624 0.965175 75.243 1.00049C74.2487 1.01088 72.2567 1.18329 70.287 2.52521C69.471 3.07776 68.0619 4.03746 68.1631 5.05117Z" fill="black" stroke="black" stroke-width="0.25" stroke-miterlimit="10"/>
<path d="M22.9946 5.05117C22.8824 6.11265 21.1271 6.20821 18.25 7.78693C16.3084 8.85258 15.0526 9.93691 12.8884 11.8044C11.1314 13.3208 9.8593 14.4197 8.50217 16.0981C5.23238 20.1446 5.03876 23.1546 3.72505 23.0944C2.35344 23.032 1.3003 19.6876 1.06145 17.4151C0.744784 14.4114 1.72373 12.0682 2.36068 10.5933C4.0761 6.61951 6.83561 4.4633 7.85255 3.73626C9.09207 2.85134 11.8063 0.965175 15.5213 1.00049C16.5708 1.01088 18.6734 1.18329 20.7526 2.52521C21.6121 3.07776 23.1013 4.03746 22.9946 5.05117Z" fill="black" stroke="black" stroke-width="0.25" stroke-miterlimit="10"/>
<path d="M24.5093 31.5076C23.0531 32.4545 22.179 33.5705 21.6367 34.2776C20.0681 36.3176 19.3608 38.3805 19.0598 39.4297C18.7134 40.6311 18.1349 42.7211 18.4686 45.4077C18.6354 46.751 18.9256 49.0997 20.623 51.0458C22.5652 53.2714 25.0406 53.4675 25.9039 53.4759C27.7681 53.4946 29.1337 52.7103 30.0876 52.1638C30.414 51.9761 31.95 51.0729 33.4679 49.1998C34.0555 48.474 35.0928 47.0451 35.8762 44.9238C36.9498 42.012 36.9045 39.5319 36.89 39.0438C36.8573 37.884 36.812 36.2967 36.0032 34.5237C35.1146 32.5797 33.8379 31.5806 33.5532 31.3636C31.8866 30.1038 30.2345 30.0287 29.413 30.0036C26.992 29.9286 25.2365 31.0341 24.5093 31.5076Z" fill="black" stroke="black" stroke-width="0.1" stroke-miterlimit="10"/>
<path d="M31.3463 36.0057C31.1516 36.2738 31.1273 36.5671 31.1132 36.7371C31.103 36.8525 31.0838 37.118 31.1977 37.4286C31.2477 37.5666 31.3872 37.9396 31.7688 38.1507C31.8482 38.1945 32.1094 38.3339 32.4347 38.2688C32.7765 38.1998 32.9712 37.9489 33.1005 37.7804C33.1812 37.6768 33.3976 37.3888 33.4193 36.972C33.4219 36.9335 33.4283 36.7663 33.3771 36.5552C33.3476 36.4331 33.281 36.23 33.1325 36.0296C33.0493 35.9181 32.8406 35.638 32.4833 35.5504C32.0416 35.4429 31.5857 35.6765 31.3463 36.0057Z" fill="#F6F6F6" stroke="black" stroke-width="0.1" stroke-miterlimit="10"/>
<path d="M63.5587 31.5076C64.9239 32.4545 65.7434 33.5705 66.2518 34.2776C67.7224 36.3176 68.3854 38.3805 68.6677 39.4297C68.9924 40.6311 69.5347 42.7211 69.2219 45.4077C69.0655 46.751 68.7935 49.0997 67.2021 51.0458C65.3813 53.2714 63.0606 53.4675 62.2513 53.4759C60.5036 53.4946 59.2234 52.7103 58.3291 52.1638C58.0231 51.9761 56.583 51.0729 55.16 49.1998C54.6092 48.474 53.6367 47.0451 52.9022 44.9238C51.8957 42.012 51.9382 39.5319 51.9518 39.0438C51.9824 37.884 52.0249 36.2967 52.7832 34.5237C53.6163 32.5797 54.8132 31.5806 55.0801 31.3636C56.6425 30.1038 58.1914 30.0287 58.9615 30.0036C61.2312 29.9286 62.8753 31.0341 63.5587 31.5076Z" fill="black" stroke="black" stroke-width="0.1" stroke-miterlimit="10"/>
<path d="M58.5332 36.0057C58.8252 36.2738 58.8617 36.5671 58.8828 36.7371C58.8981 36.8525 58.927 37.118 58.756 37.4286C58.6811 37.5666 58.4718 37.9396 57.8994 38.1507C57.7803 38.1945 57.3885 38.3339 56.9006 38.2688C56.3878 38.1998 56.0959 37.9489 55.9019 37.7804C55.7809 37.6768 55.4563 37.3888 55.4236 36.972C55.4198 36.9335 55.4102 36.7663 55.487 36.5552C55.5312 36.4331 55.631 36.23 55.8538 36.0296C55.9787 35.9181 56.2918 35.638 56.8276 35.5504C57.4903 35.4429 58.176 35.6765 58.5332 36.0057Z" fill="#F6F6F6" stroke="black" stroke-width="0.1" stroke-miterlimit="10"/>
</svg>
