<svg width="120" height="120" viewBox="0 0 120 120" fill="none" xmlns="http://www.w3.org/2000/svg">
<g clip-path="url(#clip0_193_1212)">
<path d="M39.6693 31.53L39.6694 31.5301L39.6805 31.5221C43.6931 28.6246 48.244 26.5578 53.0662 25.443C57.8875 24.3283 62.8829 24.1878 67.7593 25.0295C71.7187 25.7412 75.4911 27.2541 78.8452 29.4754C82.1949 31.6938 85.0569 34.5722 87.2562 37.9343C89.9687 42.5438 90.8393 48.0082 89.6933 53.2328C88.546 58.4633 85.4624 63.0661 81.0616 66.117L81.0585 66.1191L76.2221 69.5056L76.2149 69.5108C75.8123 69.7995 75.5009 70.1976 75.3178 70.6579C75.1347 71.1182 75.0875 71.6214 75.1818 72.1077C75.2761 72.5941 75.508 73.0432 75.8498 73.4017C76.1917 73.7602 76.6293 74.0131 77.1106 74.1304L77.1106 74.1304L77.1177 74.1321C78.4179 74.4363 79.6244 75.0528 80.6327 75.9282C81.6379 76.8009 82.416 77.9048 82.9001 79.1447C83.5196 80.9025 83.5393 82.8161 82.9559 84.5864C82.3713 86.3606 81.214 87.8903 79.6658 88.9356L79.6658 88.9355L79.6563 88.9422C72.0429 94.2448 62.635 96.3058 53.502 94.6719C44.3691 93.0379 36.2593 87.8429 30.9567 80.2295C25.6541 72.6162 23.5931 63.2082 25.227 54.0753C26.8609 44.9424 32.056 36.8326 39.6693 31.53ZM77.9887 61.4855L77.9932 61.4823C81.1534 59.2368 83.3725 55.9028 84.2243 52.1208C85.076 48.3388 84.5003 44.3754 82.6078 40.992L82.5934 40.9662L82.577 40.9415C80.7758 38.2155 78.4382 35.8849 75.7067 34.092C72.9753 32.299 69.9072 31.0812 66.6897 30.5128L66.6894 30.5128C62.5989 29.7916 58.4054 29.8968 54.3562 30.8224C50.3088 31.7476 46.4875 33.4736 43.1176 35.8987L42.8874 36.0599L42.8809 36.0644L42.8746 36.0691C37.1977 40.2129 33.1691 46.2308 31.5013 53.0585C29.8336 59.8861 30.6342 67.0836 33.7615 73.378L33.7614 73.378L33.7652 73.3854C35.6631 77.1071 38.3317 80.382 41.5935 82.9922C44.8553 85.6025 48.6355 87.4883 52.6826 88.5242C56.7298 89.5602 60.9512 89.7224 65.0659 89.0003C69.1807 88.2781 73.0945 86.6881 76.5471 84.336L76.5726 84.3186L76.5967 84.2992C77.5465 83.5386 78.3043 82.3525 77.8408 81.1394C77.6977 80.7086 77.4423 80.3235 77.1007 80.024C76.7582 79.7238 76.3418 79.5207 75.8947 79.4357C74.3735 79.0756 72.9887 78.2836 71.907 77.1548C70.8211 76.0216 70.0874 74.5976 69.7949 73.0557C69.5023 71.5137 69.6634 69.92 70.2587 68.4678C70.854 67.0156 71.8579 65.7674 73.1486 64.8745L73.1523 64.8719L77.9887 61.4855Z" fill="#787370" stroke="white" stroke-width="1.6"/>
<path d="M51.7902 48.2755C54.2184 46.5753 54.8086 43.2285 53.1083 40.8003C51.408 38.372 48.0612 37.7819 45.633 39.4822C43.2048 41.1824 42.6147 44.5292 44.3149 46.9574C46.0152 49.3857 49.362 49.9758 51.7902 48.2755Z" fill="#02863E"/>
<path d="M59.6737 39.2603C59.2254 40.2223 59.0724 41.2956 59.2339 42.3446C59.3955 43.3935 59.8644 44.371 60.5814 45.1535C61.2983 45.936 62.2312 46.4884 63.2621 46.7409C64.2929 46.9933 65.3755 46.9345 66.3729 46.5718C67.3703 46.2091 68.2378 45.5589 68.8658 44.7033C69.4937 43.8477 69.8539 42.8252 69.9009 41.7649C69.9478 40.7046 69.6793 39.6542 69.1294 38.7465C68.5795 37.8388 67.7728 37.1144 66.8114 36.6651C66.1724 36.3664 65.4807 36.1966 64.7761 36.1654C64.0714 36.1342 63.3675 36.2423 62.7046 36.4833C62.0417 36.7243 61.4328 37.0936 60.9128 37.5702C60.3927 38.0467 59.9717 38.621 59.6737 39.2603ZM40.6214 52.6009C39.5642 52.6943 38.5585 53.0991 37.7312 53.764C36.904 54.4289 36.2925 55.3241 35.974 56.3365C35.6554 57.3489 35.6442 58.433 35.9416 59.4518C36.2391 60.4705 36.8319 61.3783 37.6451 62.0602C38.4584 62.7421 39.4555 63.1677 40.5105 63.283C41.5656 63.3984 42.6311 63.1984 43.5725 62.7083C44.5138 62.2182 45.2888 61.46 45.7994 60.5295C46.3099 59.5991 46.5332 58.5382 46.4409 57.4809C46.3796 56.7782 46.1804 56.0945 45.8547 55.4689C45.529 54.8432 45.0831 54.2879 44.5427 53.8347C44.0022 53.3815 43.3777 53.0392 42.7048 52.8275C42.032 52.6158 41.324 52.5388 40.6214 52.6009ZM41.3625 69.817C40.9823 70.8089 40.905 71.8913 41.1403 72.9271C41.3757 73.963 41.9131 74.9057 42.6845 75.636C43.456 76.3662 44.4267 76.8512 45.4739 77.0294C46.5211 77.2076 47.5977 77.071 48.5672 76.637C49.5368 76.203 50.3558 75.4911 50.9205 74.5914C51.4852 73.6916 51.7702 72.6446 51.7395 71.5828C51.7087 70.521 51.3636 69.4922 50.7478 68.6266C50.132 67.761 49.2733 67.0977 48.2802 66.7205C47.623 66.4658 46.9219 66.3439 46.2173 66.3619C45.5127 66.38 44.8187 66.5375 44.1753 66.8255C43.532 67.1134 42.9522 67.5261 42.4694 68.0396C41.9866 68.5531 41.6104 69.1572 41.3625 69.817Z" fill="#8FD192"/>
</g>
<defs>
<clipPath id="clip0_193_1212">
<rect width="85.8779" height="85.8779" fill="white" transform="translate(0.197266 49.4553) rotate(-35)"/>
</clipPath>
</defs>
</svg>
