<svg width="72" height="65" viewBox="0 0 72 65" fill="none" xmlns="http://www.w3.org/2000/svg">
<path d="M56.6115 0.499819C59.7332 0.499984 62.7801 1.45475 65.3437 3.23605C67.9072 5.01734 69.8647 7.53997 70.9537 10.4656C72.0426 13.3911 72.2108 16.5798 71.4358 19.6037C70.6608 22.6276 68.9796 25.3422 66.6177 27.3834C67.6491 30.1623 68.2056 33.1267 68.2056 36.2098C68.2056 45.077 63.594 52.9758 56.4074 58.1515C55.3575 58.9083 54.2556 59.6021 53.1054 60.2365L52.9682 60.3107C47.8182 63.0851 42.0554 64.5251 36.2058 64.4995C30.3562 64.525 24.5934 63.0849 19.4435 60.3107C18.3132 59.696 17.2205 59.0146 16.1711 58.2702L16.0042 58.1515C8.81767 52.9758 4.20599 45.077 4.20599 36.2098C4.20599 33.1304 4.76251 30.1623 5.79392 27.3834C4.09618 25.9141 2.74253 24.0892 1.82897 22.0382C0.91542 19.9871 0.464346 17.7602 0.507742 15.5154C0.551138 13.2705 1.08794 11.0627 2.08008 9.04855C3.07222 7.03438 4.49539 5.26317 6.24865 3.86056C8.00191 2.45795 10.0423 1.4583 12.2252 0.932494C14.408 0.40669 16.6798 0.367621 18.8794 0.818055C21.079 1.26849 23.1526 2.19739 24.9531 3.53889C26.7535 4.88038 28.2368 6.6016 29.2976 8.58047C31.5738 8.13945 33.8872 7.9183 36.2058 7.92007C38.5803 7.92007 40.888 8.14639 43.1141 8.58047C44.4214 6.13771 46.3676 4.09578 48.7447 2.67262C51.1219 1.24946 53.8409 0.498472 56.6115 0.499819ZM41.8563 46.958C41.4482 47.7149 40.7433 48.3456 39.8788 48.8019C38.8548 49.3436 37.5786 49.659 36.2058 49.659C34.8331 49.659 33.5568 49.3436 32.5328 48.8057C31.7074 48.3974 31.0208 47.7547 30.559 46.958C28.4624 47.739 26.5492 48.9436 24.9387 50.4967C23.3282 52.0497 22.055 53.9179 21.1984 55.9847C25.7803 58.5559 30.9519 59.8919 36.2058 59.8618C41.4598 59.8919 46.6313 58.5559 51.2133 55.9847C50.3591 53.9164 49.0868 52.0469 47.4759 50.4935C45.8651 48.9401 43.9506 47.7365 41.8526 46.958H41.8563ZM36.2058 12.5577C20.9349 12.5577 8.84364 23.3171 8.84364 36.2098C8.84364 42.8843 12.0715 48.9726 17.3102 53.306C18.9945 49.7171 21.6661 46.682 25.0124 44.556C28.3587 42.43 32.2413 41.3009 36.2058 41.3009C40.1704 41.3009 44.0529 42.43 47.3992 44.556C50.7455 46.682 53.4171 49.7171 55.1015 53.306C60.3402 48.9726 63.568 42.8806 63.568 36.2098C63.568 23.3171 51.473 12.5577 36.2058 12.5577ZM15.8001 5.13748C13.733 5.13701 11.7103 5.73719 9.97799 6.86501C8.24567 7.99284 6.87837 9.59971 6.04238 11.4902C5.20639 13.3807 4.93772 15.4734 5.26905 17.5138C5.60039 19.5542 6.51744 21.4543 7.90869 22.9832C11.5001 16.995 17.4437 12.2906 24.6376 9.82336C23.6596 8.37961 22.3427 7.19757 20.802 6.38067C19.2613 5.56378 17.544 5.13693 15.8001 5.13748ZM56.6115 5.13748C52.9941 5.13748 49.7181 6.95544 47.774 9.82336C54.9716 12.2906 60.9115 16.995 64.5029 22.9832C65.8942 21.4543 66.8112 19.5542 67.1426 17.5138C67.4739 15.4734 67.2052 13.3807 66.3692 11.4902C65.5333 9.59971 64.166 7.99284 62.4336 6.86501C60.7013 5.73719 58.6786 5.13701 56.6115 5.13748Z" fill="#8FD192"/>
</svg>
